<svg xmlns="http://www.w3.org/2000/svg" width="155" height="50" viewBox="0 0 155 50">
  <g id="Grupo_61" data-name="Grupo 61" transform="translate(-1469 -512)">
    <line id="Linha_1" data-name="Linha 1" x2="35" transform="translate(1497.5 526.5)" fill="none" stroke="#e42526" stroke-width="2"/>
    <circle id="Elipse_1" data-name="Elipse 1" cx="14.5" cy="14.5" r="14.5" transform="translate(1469 512)" fill="#e42526"/>
    <line id="Linha_2" data-name="Linha 2" x2="35" transform="translate(1560.5 526.5)" fill="none" stroke="#bebebe" stroke-width="2"/>
    <g id="Elipse_3" data-name="Elipse 3" transform="translate(1595 512)" fill="#f5f5f5" stroke="#bebebe" stroke-width="2">
      <circle cx="14.5" cy="14.5" r="14.5" stroke="none"/>
      <circle cx="14.5" cy="14.5" r="13.5" fill="none"/>
    </g>
    <g id="Elipse_2" data-name="Elipse 2" transform="translate(1532 512)" fill="#e42526" stroke="#e42526" stroke-width="2">
      <circle cx="14.5" cy="14.5" r="14.5" stroke="none"/>
      <circle cx="14.5" cy="14.5" r="13.5" fill="none"/>
    </g>
    <text id="_3" data-name="3" transform="translate(1606 531)" fill="#bebebe" font-size="14" font-family="Roboto, sans-serif"><tspan x="0" y="0">3</tspan></text>
    <text id="_2" data-name="2" transform="translate(1543 531)" fill="#fff" font-size="14" font-family="Roboto, sans-serif"><tspan x="0" y="0">2</tspan></text>
    <text id="Translate" transform="translate(1518 558)" fill="#e42526" font-size="14" font-family="Roboto, sans-serif"><tspan x="0" y="0">Translate</tspan></text>
    <g id="ic_check" transform="translate(1475 518)">
      <rect id="rectangle" width="17.52" height="17.52" fill="none"/>
      <path id="path" d="M7.488,13.338,4.422,10.272,3.4,11.294l4.088,4.088,8.76-8.76L15.226,5.6Z" transform="translate(-0.918 -1.512)" fill="#fff" fill-rule="evenodd"/>
    </g>
  </g>
</svg>
