<svg xmlns="http://www.w3.org/2000/svg" width="62" height="20" viewBox="0 0 62 20">
  <g id="Grupo_63" data-name="Grupo 63" transform="translate(-255 -1071)">
    <rect id="Retângulo_186" data-name="Retângulo 186" width="62" height="20" rx="4" transform="translate(255 1071)" fill="#00aced"/>
    <g id="Twitter" transform="translate(260 1075.433)">
      <path id="Caminho_2" data-name="Caminho 2" d="M42.117,12.544A7.516,7.516,0,0,0,49.7,4.961V4.6A5.871,5.871,0,0,0,51,3.228a6,6,0,0,1-1.517.433,2.81,2.81,0,0,0,1.156-1.444,6.624,6.624,0,0,1-1.661.65A2.579,2.579,0,0,0,47.028,2a2.713,2.713,0,0,0-2.672,2.672,1.408,1.408,0,0,0,.072.578,7.467,7.467,0,0,1-5.489-2.817,2.766,2.766,0,0,0-.361,1.372,2.869,2.869,0,0,0,1.156,2.239,2.435,2.435,0,0,1-1.228-.361h0a2.639,2.639,0,0,0,2.167,2.6,2.226,2.226,0,0,1-.722.072,1.229,1.229,0,0,1-.506-.072,2.736,2.736,0,0,0,2.528,1.878,5.453,5.453,0,0,1-3.322,1.156,2,2,0,0,1-.65-.072,6.817,6.817,0,0,0,4.117,1.3" transform="translate(-38 -2)" fill="#fff" fill-rule="evenodd"/>
    </g>
    <text id="Tweet" transform="translate(279 1085)" fill="#fff" font-size="12" font-family="Roboto, sans-serif"><tspan x="0" y="0">Tweet</tspan></text>
  </g>
</svg>
